<?xml version="1.0" encoding="utf-8"?>
<!-- Generator: Adobe Illustrator 16.0.0, SVG Export Plug-In . SVG Version: 6.00 Build 0)  -->
<!DOCTYPE svg PUBLIC "-//W3C//DTD SVG 1.1//EN" "http://www.w3.org/Graphics/SVG/1.1/DTD/svg11.dtd" [
	<!ENTITY ns_extend "http://ns.adobe.com/Extensibility/1.0/">
	<!ENTITY ns_ai "http://ns.adobe.com/AdobeIllustrator/10.0/">
	<!ENTITY ns_graphs "http://ns.adobe.com/Graphs/1.0/">
	<!ENTITY ns_vars "http://ns.adobe.com/Variables/1.0/">
	<!ENTITY ns_imrep "http://ns.adobe.com/ImageReplacement/1.0/">
	<!ENTITY ns_sfw "http://ns.adobe.com/SaveForWeb/1.0/">
	<!ENTITY ns_custom "http://ns.adobe.com/GenericCustomNamespace/1.0/">
	<!ENTITY ns_adobe_xpath "http://ns.adobe.com/XPath/1.0/">
]>
<svg version="1.1" xmlns:x="&ns_extend;" xmlns:i="&ns_ai;" xmlns:graph="&ns_graphs;"
	 xmlns="http://www.w3.org/2000/svg" xmlns:xlink="http://www.w3.org/1999/xlink" x="0px" y="0px" width="305.75px"
	 height="74.25px" viewBox="0 0 305.75 74.25" enable-background="new 0 0 305.75 74.25" xml:space="preserve">
<metadata><?xpacket begin="﻿" id="W5M0MpCehiHzreSzNTczkc9d"?>
<x:xmpmeta xmlns:x="adobe:ns:meta/" x:xmptk="Adobe XMP Core 5.3-c011 66.145661, 2012/02/06-14:56:27        ">
   <rdf:RDF xmlns:rdf="http://www.w3.org/1999/02/22-rdf-syntax-ns#">
      <rdf:Description rdf:about=""
            xmlns:pdf="http://ns.adobe.com/pdf/1.3/">
         <pdf:Producer>Adobe PDF library 5.00</pdf:Producer>
      </rdf:Description>
      <rdf:Description rdf:about=""
            xmlns:xmp="http://ns.adobe.com/xap/1.0/"
            xmlns:xmpGImg="http://ns.adobe.com/xap/1.0/g/img/">
         <xmp:CreateDate>2004-05-11T00:59:25-07:00</xmp:CreateDate>
         <xmp:ModifyDate>2004-05-12T15:44:25Z</xmp:ModifyDate>
         <xmp:CreatorTool>Adobe Illustrator 10</xmp:CreatorTool>
         <xmp:MetadataDate>2004-05-11T00:59:25-07:00</xmp:MetadataDate>
         <xmp:Thumbnails>
            <rdf:Alt>
               <rdf:li rdf:parseType="Resource">
                  <xmpGImg:width>256</xmpGImg:width>
                  <xmpGImg:height>64</xmpGImg:height>
                  <xmpGImg:format>JPEG</xmpGImg:format>
                  <xmpGImg:image>/9j/4AAQSkZJRgABAgEASABIAAD/7QAsUGhvdG9zaG9wIDMuMAA4QklNA+0AAAAAABAASAAAAAEA&#xA;AQBIAAAAAQAB/+4ADkFkb2JlAGTAAAAAAf/bAIQABgQEBAUEBgUFBgkGBQYJCwgGBggLDAoKCwoK&#xA;DBAMDAwMDAwQDA4PEA8ODBMTFBQTExwbGxscHx8fHx8fHx8fHwEHBwcNDA0YEBAYGhURFRofHx8f&#xA;Hx8fHx8fHx8fHx8fHx8fHx8fHx8fHx8fHx8fHx8fHx8fHx8fHx8fHx8fHx8f/8AAEQgAQAEAAwER&#xA;AAIRAQMRAf/EAaIAAAAHAQEBAQEAAAAAAAAAAAQFAwIGAQAHCAkKCwEAAgIDAQEBAQEAAAAAAAAA&#xA;AQACAwQFBgcICQoLEAACAQMDAgQCBgcDBAIGAnMBAgMRBAAFIRIxQVEGE2EicYEUMpGhBxWxQiPB&#xA;UtHhMxZi8CRygvElQzRTkqKyY3PCNUQnk6OzNhdUZHTD0uIIJoMJChgZhJRFRqS0VtNVKBry4/PE&#xA;1OT0ZXWFlaW1xdXl9WZ2hpamtsbW5vY3R1dnd4eXp7fH1+f3OEhYaHiImKi4yNjo+Ck5SVlpeYmZ&#xA;qbnJ2en5KjpKWmp6ipqqusra6voRAAICAQIDBQUEBQYECAMDbQEAAhEDBCESMUEFURNhIgZxgZEy&#xA;obHwFMHR4SNCFVJicvEzJDRDghaSUyWiY7LCB3PSNeJEgxdUkwgJChgZJjZFGidkdFU38qOzwygp&#xA;0+PzhJSktMTU5PRldYWVpbXF1eX1RlZmdoaWprbG1ub2R1dnd4eXp7fH1+f3OEhYaHiImKi4yNjo&#xA;+DlJWWl5iZmpucnZ6fkqOkpaanqKmqq6ytrq+v/aAAwDAQACEQMRAD8A9U4q7FVKe6trdeVxMkKn&#xA;oZGCj8SMVQy67ojtxXULZm8BNGT+vFUarK6hlIZTuGG4OKt4q7FXYqove2SP6b3Eav04F1B+4nFV&#xA;YEEVHTFXYq7FXYqoLfWTP6a3ERkJpwDqTX5VxVXxV2Kof9I6fy4/WYuVaU5rWv34qiAQQCDUHocV&#xA;YZ+Y2ralp/6P+pXD2/q+t6nA0rx4Ur8qnFUT+XupX9/ptzJeTtO6TcVZzUgcQaYqlHmryZrmo69d&#xA;XtrGjQS+nwLOAfhjVTsfcYqzPQ7Saz0eztZwBNDEqOAaioG++Ko7FXYq7FVGS9s4n4Szxo/8rOoP&#xA;3E4qrAggEGoO4IxV2KuxV2KuxV2KrZJI442kkYJGgLO7GgAG5JJxV555h/MG8uZjZ6JVIyeP1gCs&#xA;jnp8A/ZH4/LFUHZ+QfMmpH6zeyCAvuWuGZpT8wKn7ziqNf8AKy8CnhfxluwKMB99TiqV3GkebvLD&#xA;meF3WBTVpoGLxH/XUj/iS4qy7yp54h1Vls7xVgv6fARskn+rXo3tirKsVec+e/Nt2b2TSrGUxQQ/&#xA;DcSIaM791r1oOmKpNp3krX9RsxeQxKsTjlH6jBWceIHv74qjPKN55lsNX+owQyzRI/C7tD9lBWha&#xA;p+FCPGu+KpR5m/5SHUv+YiT/AIkcVRelL5h1O+sZCtxc2sEsSggMYkVGUUFPhFAMVRHm3zRe6tqE&#xA;lpbOwsUf04okr+8INOTU68uwxVbP+X/mKGxN2yRtxXm9urEygAVO1OJ+g4qmPkLzTdR30elXkpkt&#xA;p/ht2c1KP2APg3SmKt+fLrXrzVJLKCGc2EAUBY0fi7EAljQfF1piqHg/LnUpNJ+utOsc5j9VbVlN&#xA;aUrRmrs3tTFUH5I1q9statrZJGNrcuIpISar8ewYDsQcVUvNWi6rptwj38gkS5eVoKOXoAQT1G32&#xA;hiqp5X0DWtRpc2MoSCGZRKpdkqRRjsBvtiq3z5/yld9/zy/5Mpiqt5n03houh6ig2ltlhlP+Uo5L&#xA;94J+7FWSflhe+ppt1Zk7wSh1/wBWQf1Q4qw/zhe/XPMl9IDVUk9FKdKRDht8yK4qm2t6vdaJpVp5&#xA;fs2MMyxCS/lXZ+cvxlAeo67/AEYqgtM8ja9qdmL2P0445ByjEzEM48RQN196Yqs0TXdU8uamYJuY&#xA;gR+F1aMajruVHQN3BHXFXrqOkiK6EMjgMrDoQdwcVbxV2KuxV2KvP/zH8wSNKui2zEAcXu6dyd0T&#xA;+P3YqnPk3ylDpVut3dKG1KVamu/pA/sr7/zHFWT4q7FXMoYFWFQdiD0IxV5r558qrpsi6rpymO2Z&#xA;h6sabek5OzLTopP3HFWW+TteOsaQskp/0uA+nce5A2f/AGQ/GuKvKdUaRtTu2k/vDNIX/wBYua4q&#xA;9ssBGLC2EVPTESBKdOPEUxVWCqCSAAWNWp3PSpxV4t5m/wCUh1L/AJiJP+JHFXq1lWLyxAYhxZbJ&#xA;SnEdD6Vf14q8dsUunvYEtCRdNIogIIU+oSAtCaUNcVZX+ifzN/nuP+kmP/qpiqD07yb5qhv4LhbQ&#xA;D0JkcsJYTQqwPZ8VTnzV5/u4L2Ww0vinosUluWAYlxsQoO2x23xVLE0rz3qkDT3E80VsVLlp5TGl&#xA;AK14A16f5OKpN5Z/5SHTf+YiP/iQxVln5q/9Kv8A57/8y8VRf5Xf8cm7/wCM/wDxoMVYp58/5Su+&#xA;/wCeX/JlMVZhcab+kPy8giUVlitkmi8eUYrt81qMVYn5G1ddN1K4eQ/u3tpTQ9C0S+oPwUjFUL5W&#xA;sH1TzFbJIOa8/XnJ6FU+I1/1jt9OKrPNju/mTUS/X1mA+Q2H4DFU3tNM/MR7SF7Z5/qzRqYONzGB&#xA;wIHGg57bYqhbnyd5yurhpbi2Mtw9C7vNCWNBQVq/tir0vQYLqDRrKC7ThcQxLHIlQ1OA4jdajoMV&#xA;R+KuxV2KuxV5V5Zi/TXnT6zMOaepJdMPZTVB8gxXFWZedPND6LaRpbANe3NfTLbhFXqxHjvtirGU&#xA;m/MVLFNXWZ5IXAcRfAxKtSh9KnQ+2Kplr3nXVbDS7SN7YWur3Kc5Q1GEaAkBgpJ3anRumKpf6v5j&#xA;2lvFqJkkmjlKn0aLIaP9nlGBtWvbFWbehNquhGG/g+rzXUJWWEkNwYigIpXvuPDFWCflpdPDrdxa&#xA;MSFmiNV/y42BH4FsVUvPnlu5s9Sl1GFC9ldNzdwK8JG+0G+Z3BxVT0j8wNX06xSz9OO4SIcYXk5c&#xA;lUdAaEVAxVU8t3HmrV9fe8trh4RIwa8mA/dBRtx4mqk8dlH+3iqTeZv+Uh1L/mIk/wCJHFXrujAH&#xA;RrEEVBtoqj/YDFXlXmTQLzQ9SJUMLZn52lwOlK1Ar2ZcVTf/AJWdq31P0vq8X1njx+sb0r/Nw6V/&#xA;DFVHyRbeYLzWPrcE8sVsX53twd1fepWjVDMfw64qk3mGwutO1u6imBB9VpI3bfmrNyVq9/fFU8vf&#xA;zB1fUbI2EFssc9wPSeSPkzNy2IRexP04qkflw+n5i0/n8NLmMGvY8wMVZj+aVrM9tYXKqTFC0iSM&#xA;Oxk4ca/8DirGfLXmu/0ZXt4I45Ip3VmEgaoPTahGKt+fP+Urvv8Anl/yZTFXpXlb/lHNO/4wJ+rF&#xA;Xk/mHTjputXdoBxRHJi/4xv8S/8ACnFWZflfpvGC71Fhu5EER9l+J/vJH3YqgvzD8uXKXravbxl7&#xA;eYD6zxFeDqKcj7MB18cVQWifmBqOmWK2bwpcxxCkLMSrKvZdq1A7Yqg4bvzHr+vLcWzuL00CvESi&#xA;RIPcfZUfj88VeuW0csdvFHNIZpUUCSUgDkwG7UGwriqpirsVdirsVeX/AJbyCHzJJFJs8kEkYH+U&#xA;GVj+CHFUf+aVpN61jdhaw8WiLeDV5AH5jp8sVTa1896DBoUMpkLXMcSobQAhy6gClaUp7+GKsT87&#xA;3K6jcWerwRyLaXMPpp6q8SHjduQHb9rtirMZ/wAwdBj05LpJDLOwWtooIcE/aBJFPhxVPdPv4b6x&#xA;ivYgyQzLzUSDiwHuMVeb+QiZvNryoPh4TOfYMaf8bYqzrzD5k0zRoB9arJLKD6dstCzDpU12C/PF&#xA;Xn83m7TJJzIPL9kBWtCKn6aBR+GKsv8ALHnXSdQZLEQCwn6RQinpt7IQFofamKrvM2seWNIc/WLK&#xA;G6vpfj9IRoWNf2nYg0r9+Kse/wCVoXi0WLT4UiWgROTbAdtgB+GKp7ovnfSNacWN5AIJpfhWKWkk&#xA;Uh/lBIG/sRiqA8zah5e0HUo7caDb3DPEJufwoByZlpx4OP2cVU3/ADOto7KNbXT+M1CDFzpHGAaL&#xA;QhRy29hiqlb+f9P1CVLfXNOia3Y0EtPUCV78WB+8HFVKbzxo+n3DDRNJhVQSPrDAIzD2CjlT5nFU&#xA;b5d816JqN/Ha3el29vcyt+6mREKl+oBqtQT2674qv1f8xI7a9utPk0wTxwu0TFpRRwppupjbriqT&#xA;Xnmvy8kqmx0G2NKEvKopy70UDoD/ALWKpnYeePL14ZpNY06KO4C8hKI1l9SgoF3FQfCu3viqHk/M&#xA;6WM+nZ6dHHboKRozHYD2UKB8sVT7y9rui+ZHkE9jEt/EoLrIqyVQbclYrWgJ6Yq1rXnPRtCJsbSA&#xA;TTx/agipHGhO9GIHX2AxVIR+aV9y+KxiKd1DsDT57/qxVNtDvvJ2vylG06GC/IqYXRPi7kqwA5e+&#xA;1cVW6v5ztfL2oy6ZbaWnpxhWrG4iB5KG+ysZ8cVQtz+aSehH9Wsf37Csgd/gU16CgBbb5YqqaP8A&#xA;mUlxdpb39sIUlYKs0bEhSdhyB7e9cVZJr/mPT9Et1luSXkkqIYE+0xHXr0A7nFWHSfmlelyY7GNU&#xA;7BnYn7wB+rFU20j8yNMu5VhvIWs5HICvX1IyT4kAEfdirGPMENx5d83/AFyFfgaT6zD2BVyeafiV&#xA;+WKvSY203WdMRyq3FncqG4uAR8iOxB+44qlkfkLyukok+qFqGoRpHK/dXf6cVTe702wu7T6ncQJJ&#xA;bUAERFAKbDjSnGntiqU2/kTyxDMJRacypqFkd2Wv+qTQ/Tiq3ztrcWl6NJEjAXV0pigQdQpFGb/Y&#xA;g/fiqTfljpTJBc6nItPW/cwHxVTVz/wVB9GKsQ8zajJf67eTuaqJGjiHgiHiv4DFXoui+StDh0qF&#xA;Lm1S4uJEDTyPueTCpCnsBXamKoOz/LvS7S+kvJpnkt429S3gWqlQvxDk4PI09qYq8/lludX1cuxr&#xA;cXswArvQu1FHyHTFXqlt5K8tw2i27WaS0FHlepdj3PKtR9GKvMvMeljSNbuLSJiUiYNC1d+LAMu/&#xA;iK0xVFebb9799Lu5DWSSwj9Q+LLJIrH6SMVZJ5G8raPeaL9cvYBcSzOwXkTRVU8aAAjvirCtatIr&#xA;TV7y1hr6UMzpGDueIYgb4q9BsvJWhv5ZjLwcrqW2EpuSTyEjJyqKGlAe2KvPdHJXV7FgaEXERB9+&#xA;YxVX8zf8pDqX/MRJ/wASOKs8TyZoI8tcmt63JtvVNxVufqcOVRvSle2KvOdMtVu9StLViVW4mjiZ&#xA;h1AdgtfxxVnvnPypotn5fku7O3EE1sU+IFiWVmCEGpNftVxVi3lC+axvL27X7cNnMyV6cvh4/jiq&#xA;D0TT21bWre0kc1uJCZX/AGqAF3O/egOKvUZfJflp7U24skQcaCVa+oD48utfniryqVbnSNYdY3pP&#xA;ZTkK47mNqV+mmKpj53mWfzDLOuyyxQuB7NEpxVlflHyloV15egubu3E89yGLuxYEAMVAWhFNhirz&#xA;y9gFveTwKaiGR0B8eLEYqyj8zFm/TsLOD6Rt1ER7bM3KmKqXl/zD5YtbBbTU9JWaQE8roIkjNU13&#xA;50Ip02OKsh8tWfkefVjeabJW5pWKzlqODDcsgbqae5piqeeZvLsGt6f6DER3EZLW0x/ZbuD/AJLd&#xA;8VefaTres+VNQktLmImEn99bMaA/5cbdPp6HFWf6Z5w8v6ggMd0sMh6wzkRsD4b7H6DiqYvqWnRp&#xA;ze6hVD0ZpFA+8nFWPa1+YWj2SMlmfrtz0HDaMH3fv/scVYjpmla15t1Q3d0zC35ATXFKKqj/AHXG&#xA;PH/bOKvUrW1gtbaO2t0EcMShEQdgMVeL+YLN7PW723cU4TOVr3VjyU/SpGKvU9B8yaVe6VBM1zFF&#xA;KiKs8buqlWUUbYkbeBxVL/8AH+hy6hNYPzEJPpxXajmjkih2A5DfYdcVecJ6+l6spkWk9lOCy/5U&#xA;T1/hir2C38xaJPaLdpewrERyPN1Ur7MCag4q8p806pFqmu3N3DvCxCRHxVAFB38aVxVW802Ull+i&#xA;raUUkSwjLqeoZ5ZGIPy5UxVnv5e/8ovb/wCvJ/xM4q858zf8pDqX/MRJ/wASOKvWdP8A+Uetv+YR&#xA;P+TQxV49pH/HWsv+M8X/ABMYqiPM3/KQ6l/zESf8SOKvWf8ApnP+jP8A5lYq8j8vf8d/Tf8AmKg/&#xA;5OLir07z5/yil9/zy/5PJirzzypZPe3N9aoKyS2UwjHiw4lR94xVDeXdRTS9ctbyUH04XIl23Csp&#xA;RjT2DYq9bl8w6JHaG7a9hMPHkCHBJ9go3r7Yq8evJpdU1aaWNCZbydmjjHWsjfCv44qmPnWAW+vP&#xA;ANxDDBGD/qxKMVeieSf+UWsP9V/+TjYq8p1f/jrXv/GeX/iZxV6X5q13ysksem6pH9aJb94FFTCC&#xA;PtEghgfZd6YqlUvkbyrdwfWNP1MxoRXkXSRB8weLD6TirBv3lrff6NKHkglpDNHWjFW+Fl+fbFXu&#xA;uKoLVNG03VIfRvoFlA+w3RlJ/lYbjFWH335WqWLWN7Re0c61/wCHX/mnFUEv5X6vUcru3A7kcyf+&#xA;IjFU50v8tNLt2WS+me8Yb+mB6cf0gEsfvxVl0MMMESxQoscSCiIoAUD2AxVfiqQ+ZvKNlrirJy9C&#xA;8QUScCtR/K42qMVYa/5Z6+JOKy27L/PzYfeONcVZJ5Z8hW2lzLeXkgubtN41ApGh8RXdj4HFUR5m&#xA;8k2esv8AWYn+rXtKNIBVXA6cxtv74qxNvyz8wB+Ikt2Wv2+bAf8AEa4qn3l78u4LG4S61GVbmaM8&#xA;o4UB9MMOhJO7fdiqt5t8mXet6lHdw3EcSpCsRVwxNQzNXb/WxVOPLWkS6RpEdjLIsrozsXWoHxMT&#xA;3xVi+rfl1f3up3V4l3Ei3ErSKpDVAY1ocVZnbWjQ6ZFZlgWjhWEsOhKpxrirB7L8tdQt7yCdryJl&#xA;hkSQgBqkKwOKqurfl1f3up3V4l3Ei3ErSKpDVAY1ocVZl9Tb9F/U+Q5eh6PPtXhxrirC9M/Li/tN&#xA;StLtruJlt5o5WUBqkIwag+7FWWeYtLk1XRriwjcRvNwo7VIHF1ft/q4qkXlXyTd6NqhvJbmOVPTa&#xA;PigYGrEHv8sVd5j/AC+ttRuHu7GUW1zIS0sbCsbMe+26k9+uKseH5Z+YC/EyW4X+fm1P+IVxVlPl&#xA;nyNaaRKLu4k+tXoHwNSiJXrxB6n3xVB+ZfIl7q2ry30VzHGkgQBGDEjioXt8sVZHoGmyaZpFtYyO&#xA;JHgDAutQDVi3f54qw69/LXULi8nnW8iVZpHkAIaoDMTiqceY/IdjqkrXds/1W8feQ0rG58WHY+4+&#xA;7FWLt+WnmEPQSW7L/MHan4rXFU+8u/l3HY3SXeozLcSxHlHCgPphh0Yk0LU+WKv/2Q==</xmpGImg:image>
               </rdf:li>
            </rdf:Alt>
         </xmp:Thumbnails>
      </rdf:Description>
      <rdf:Description rdf:about=""
            xmlns:xmpMM="http://ns.adobe.com/xap/1.0/mm/">
         <xmpMM:DocumentID>uuid:d5a59b43-a42a-11d8-833c-000393d00dfa</xmpMM:DocumentID>
         <xmpMM:InstanceID>uuid:d5a5c124-a42a-11d8-833c-000393d00dfa</xmpMM:InstanceID>
      </rdf:Description>
      <rdf:Description rdf:about=""
            xmlns:dc="http://purl.org/dc/elements/1.1/">
         <dc:format>image/svg+xml</dc:format>
      </rdf:Description>
      <rdf:Description rdf:about=""
            xmlns:xmpTPg="http://ns.adobe.com/xap/1.0/t/pg/"
            xmlns:stDim="http://ns.adobe.com/xap/1.0/sType/Dimensions#"
            xmlns:xmpG="http://ns.adobe.com/xap/1.0/g/">
         <xmpTPg:MaxPageSize rdf:parseType="Resource">
            <stDim:w>305.750000</stDim:w>
            <stDim:h>74.250000</stDim:h>
            <stDim:unit>Points</stDim:unit>
         </xmpTPg:MaxPageSize>
         <xmpTPg:NPages>1</xmpTPg:NPages>
         <xmpTPg:HasVisibleTransparency>False</xmpTPg:HasVisibleTransparency>
         <xmpTPg:HasVisibleOverprint>True</xmpTPg:HasVisibleOverprint>
         <xmpTPg:PlateNames>
            <rdf:Seq>
               <rdf:li>Cyan</rdf:li>
               <rdf:li>Magenta</rdf:li>
               <rdf:li>Yellow</rdf:li>
               <rdf:li>Black</rdf:li>
            </rdf:Seq>
         </xmpTPg:PlateNames>
         <xmpTPg:SwatchGroups>
            <rdf:Seq>
               <rdf:li rdf:parseType="Resource">
                  <xmpG:groupName>Default Swatch Group</xmpG:groupName>
                  <xmpG:groupType>0</xmpG:groupType>
                  <xmpG:Colorants>
                     <rdf:Seq>
                        <rdf:li rdf:parseType="Resource">
                           <xmpG:swatchName>[Registration]</xmpG:swatchName>
                           <xmpG:mode>CMYK</xmpG:mode>
                           <xmpG:type>PROCESS</xmpG:type>
                           <xmpG:cyan>0.000000</xmpG:cyan>
                           <xmpG:magenta>0.000000</xmpG:magenta>
                           <xmpG:yellow>0.000000</xmpG:yellow>
                           <xmpG:black>100.000000</xmpG:black>
                        </rdf:li>
                     </rdf:Seq>
                  </xmpG:Colorants>
               </rdf:li>
            </rdf:Seq>
         </xmpTPg:SwatchGroups>
      </rdf:Description>
   </rdf:RDF>
</x:xmpmeta>
                                                                                                    
                                                                                                    
                                                                                                    
                                                                                                    
                                                                                                    
                                                                                                    
                                                                                                    
                                                                                                    
                                                                                                    
                                                                                                    
                                                                                                    
                                                                                                    
                                                                                                    
                                                                                                    
                                                                                                    
                                                                                                    
                                                                                                    
                                                                                                    
                                                                                                    
                                                                                                    
                           
<?xpacket end="w"?>
	</metadata>
<g id="Background">
</g>
<g id="Guides">
</g>
<g id="Foreground">
	<g>
		<path fill-rule="evenodd" clip-rule="evenodd" fill="#A1A0A0" d="M95.439,50.319c-2.759-5.03-7.465-7.032-12.928-7.032
			c-7.951,0-14.28,5.625-14.28,15.146c0,9.682,5.95,15.145,14.55,15.145c5.517,0,10.223-3.029,12.819-7.627l-6.058-3.083
			c-1.353,3.246-3.408,4.22-6.004,4.22c-4.49,0-6.545-3.732-6.545-8.654c0-4.923,1.731-8.655,6.545-8.655
			c1.298,0,3.895,0.703,5.409,3.949L95.439,50.319z"/>
		<path fill-rule="evenodd" clip-rule="evenodd" fill="#A1A0A0" d="M110.904,49.778c4.814,0,6.87,3.732,6.87,8.33
			c0,5.247-2.056,8.979-6.87,8.979s-6.869-3.732-6.869-8.654C104.035,53.511,106.09,49.778,110.904,49.778z M110.904,43.288
			c-8.979,0-15.307,5.463-15.307,15.146c0,9.682,6.328,15.145,15.307,15.145s15.308-5.463,15.308-15.145
			C126.211,48.751,119.883,43.288,110.904,43.288z"/>
		<path fill-rule="evenodd" clip-rule="evenodd" fill="#A1A0A0" d="M127.94,72.82h8.438V54.917c0-2.596,1.082-4.814,4.489-4.814
			c3.246,0,4.111,1.893,4.111,4.706V72.82h8.438V55.133c0-2.921,1.46-5.03,4.273-5.03c3.191,0,4.327,1.839,4.327,5.896V72.82h8.438
			V50.86c0-6.599-6.058-7.573-8.871-7.573c-3.354,0-6.491,1.028-9.249,3.84c-1.894-2.542-4.327-3.84-7.627-3.84
			c-2.596,0-6.166,0.757-8.33,3.3v-2.542h-8.438V72.82z"/>
		<path fill-rule="evenodd" clip-rule="evenodd" fill="#A1A0A0" d="M173.154,72.82h8.438V54.917c0-2.596,1.082-4.814,4.489-4.814
			c3.246,0,4.111,1.893,4.111,4.706V72.82h8.438V55.133c0-2.921,1.46-5.03,4.272-5.03c3.191,0,4.328,1.839,4.328,5.896V72.82h8.438
			V50.86c0-6.599-6.059-7.573-8.871-7.573c-3.354,0-6.49,1.028-9.249,3.84c-1.893-2.542-4.327-3.84-7.627-3.84
			c-2.596,0-6.166,0.757-8.33,3.3v-2.542h-8.438V72.82z"/>
		<path fill-rule="evenodd" clip-rule="evenodd" fill="#A1A0A0" d="M232.702,49.778c4.813,0,6.869,3.732,6.869,8.33
			c0,5.247-2.056,8.979-6.869,8.979c-4.814,0-6.87-3.732-6.87-8.654C225.832,53.511,227.888,49.778,232.702,49.778z M232.702,43.288
			c-8.979,0-15.308,5.463-15.308,15.146c0,9.682,6.328,15.145,15.308,15.145c8.979,0,15.308-5.463,15.308-15.145
			C248.01,48.751,241.681,43.288,232.702,43.288z"/>
		<path fill-rule="evenodd" clip-rule="evenodd" fill="#A1A0A0" d="M250.279,72.82h8.438V54.917c0-2.596,1.082-4.814,4.49-4.814
			c3.245,0,4.11,1.893,4.11,4.706V72.82h8.438V51.563c0-4.327-1.894-8.276-8.709-8.276c-2.596,0-6.166,0.757-8.33,3.3v-2.542h-8.438
			V72.82z"/>
		<path fill-rule="evenodd" clip-rule="evenodd" fill="#A1A0A0" d="M303.932,47.453c-3.895-2.596-8.275-4.165-12.711-4.165
			c-5.843,0-12.171,2.813-12.171,10.061c0,10.223,17.038,6.653,17.038,11.143c0,2.597-3.19,2.921-4.598,2.921
			c-3.84,0-6.49-1.568-9.087-4.057l-5.247,4.543c4.22,3.895,7.789,5.68,14.064,5.68c6.273,0,12.981-2.705,12.981-10.277
			c0-10.764-17.038-6.707-17.038-11.629c0-1.46,1.514-2.217,3.623-2.217c2.651,0,6.275,1.082,7.951,3.083L303.932,47.453z"/>
		<path fill-rule="evenodd" clip-rule="evenodd" fill="#A1A0A0" d="M95.439,17.214c-2.759-5.03-7.465-7.032-12.928-7.032
			c-7.951,0-14.28,5.625-14.28,15.145c0,9.682,5.95,15.146,14.55,15.146c5.517,0,10.223-3.029,12.819-7.627l-6.058-3.083
			c-1.353,3.246-3.408,4.219-6.004,4.219c-4.49,0-6.545-3.732-6.545-8.655c0-4.922,1.731-8.654,6.545-8.654
			c1.298,0,3.895,0.703,5.409,3.949L95.439,17.214z"/>
		<path fill-rule="evenodd" clip-rule="evenodd" fill="#A1A0A0" d="M97.498,39.715h8.438v-16.66c0-3.191,2.001-4.057,7.032-4.652
			l0.919-0.108l-0.054-7.464c-2.975,0.217-6.058,1.298-7.897,3.029v-2.921h-8.438V39.715z"/>
		<path fill-rule="evenodd" clip-rule="evenodd" fill="#A1A0A0" d="M142.544,27.058c-0.054-8.871-3.624-16.876-14.118-16.876
			c-8.763,0-14.118,5.842-14.118,16.011c0,8.113,5.193,14.28,14.118,14.28c6.437,0,11.034-2.542,13.955-7.951l-6.329-3.3
			c-2.434,3.462-3.895,5.084-7.032,5.084c-2.704,0-6.22-1.731-6.274-7.248H142.544z M122.639,21.866
			c0.378-3.787,3.299-5.517,5.733-5.517s5.463,1.298,5.733,5.517H122.639z"/>
		<path fill-rule="evenodd" clip-rule="evenodd" fill="#A1A0A0" d="M161.9,27.708c0,4.381-2.488,6.599-5.788,6.599
			c-2.056,0-3.949-0.974-3.949-3.245c0-2.326,1.947-3.137,4.057-3.732l5.68-1.623V27.708z M170.013,18.512
			c-0.054-6.491-4.976-8.33-12.819-8.33c-3.895,0-11.575,0.757-11.846,9.033h8.114c0.433-2.867,1.73-3.84,4.435-3.84
			c2.272,0,4.003,0.919,4.003,3.083v2.38l-3.083,0.433c-9.195,1.298-14.767,3.732-14.767,10.656c0,5.517,4.111,8.546,9.628,8.546
			c3.029,0,7.248-1.46,8.654-3.732h0.108c0.054,0.974,0.217,2.001,0.541,2.975h7.789c-0.703-1.785-0.757-4.002-0.757-6.004V18.512z"
			/>
		<path fill-rule="evenodd" clip-rule="evenodd" fill="#A1A0A0" d="M189.856,11.48h-5.031V3.15h-8.438v8.33h-4.11v5.192h4.11v15.146
			c0,4.165,1.028,8.654,8.223,8.654c1.839,0,4.327-0.216,5.409-0.325v-6.653c-0.434,0.054-1.623,0.162-2.542,0.162
			c-1.516,0-2.651-0.595-2.651-2.867V16.673h5.031V11.48z"/>
		<path fill-rule="evenodd" clip-rule="evenodd" fill="#A1A0A0" d="M193.034,10.939v28.776h8.438V10.939H193.034z M201.473,7.694
			V1.203h-8.438v6.491H201.473z"/>
		<polygon fill-rule="evenodd" clip-rule="evenodd" fill="#A1A0A0" points="212.828,39.715 221.319,39.715 231.165,10.939 
			222.186,10.939 217.209,31.277 217.102,31.277 212.124,10.939 203.092,10.939 		"/>
		<path fill-rule="evenodd" clip-rule="evenodd" fill="#A1A0A0" d="M258.414,27.058c-0.054-8.871-3.624-16.876-14.117-16.876
			c-8.764,0-14.117,5.842-14.117,16.011c0,8.113,5.191,14.28,14.117,14.28c6.437,0,11.034-2.542,13.955-7.951l-6.329-3.3
			c-2.434,3.462-3.895,5.084-7.031,5.084c-2.704,0-6.221-1.731-6.274-7.248H258.414z M238.509,21.866
			c0.379-3.787,3.299-5.517,5.733-5.517s5.464,1.298,5.734,5.517H238.509z"/>
		<g>
			<path fill-rule="evenodd" clip-rule="evenodd" fill="#A1A0A0" d="M32.76,9.698c-8.682,0-16.322,3.213-22.226,9.203
				c-6.077,6.165-9.376,14.152-9.376,22.487c0,8.421,3.212,16.235,9.29,22.313c6.077,6.077,13.978,9.376,22.313,9.376
				s16.409-3.299,22.66-9.463c5.904-5.817,9.029-13.544,9.029-22.226c0-8.595-3.125-16.409-9.116-22.4
				C49.256,12.911,41.442,9.698,32.76,9.698z M32.847,15.429c7.119,0,13.457,2.691,18.406,7.64
				c4.861,4.862,7.466,11.287,7.466,18.319c0,7.119-2.518,13.37-7.38,18.146c-5.123,5.035-11.721,7.727-18.493,7.727
				c-6.859,0-13.284-2.691-18.232-7.64c-4.949-4.95-7.727-11.461-7.727-18.233c0-6.859,2.778-13.37,7.727-18.406
				C19.476,18.034,25.728,15.429,32.847,15.429z"/>
			<path fill-rule="evenodd" clip-rule="evenodd" fill="#A1A0A0" d="M32.438,36.123c-1.79-3.264-4.844-4.563-8.389-4.563
				c-5.16,0-9.267,3.65-9.267,9.829c0,6.283,3.861,9.829,9.443,9.829c3.581,0,6.634-1.966,8.319-4.949l-3.932-2.001
				c-0.878,2.106-2.211,2.738-3.896,2.738c-2.914,0-4.247-2.422-4.247-5.616s1.123-5.617,4.247-5.617
				c0.842,0,2.527,0.457,3.51,2.563L32.438,36.123z"/>
			<path fill-rule="evenodd" clip-rule="evenodd" fill="#A1A0A0" d="M50.719,36.123c-1.791-3.264-4.844-4.563-8.389-4.563
				c-5.16,0-9.268,3.65-9.268,9.829c0,6.283,3.862,9.829,9.443,9.829c3.581,0,6.634-1.966,8.319-4.949l-3.932-2.001
				c-0.877,2.106-2.211,2.738-3.896,2.738c-2.913,0-4.248-2.422-4.248-5.616s1.124-5.617,4.248-5.617
				c0.842,0,2.527,0.457,3.511,2.563L50.719,36.123z"/>
		</g>
	</g>
</g>
</svg>
